#define 3floppy_unmount_s_width 22
#define 3floppy_unmount_s_height 22
static unsigned char 3floppy_unmount_s_bits[] = {
   0xfe, 0xff, 0x0f, 0xff, 0xff, 0x1f, 0x07, 0x00, 0x1c, 0x07, 0x00, 0x1c,
   0xe7, 0xff, 0x1c, 0x07, 0x00, 0x1c, 0x07, 0x00, 0x1c, 0xe7, 0xff, 0x1c,
   0x07, 0x00, 0x1c, 0x07, 0x00, 0x1c, 0x07, 0x00, 0x1e, 0xff, 0xff, 0x1f,
   0xff, 0xff, 0x1f, 0xff, 0xff, 0x1f, 0x1f, 0xc0, 0x1f, 0xef, 0xdf, 0x1f,
   0xef, 0xdf, 0x1f, 0xef, 0xdf, 0x1f, 0xef, 0xdf, 0x1f, 0x0e, 0xc0, 0x1f,
   0xfc, 0xff, 0x1f, 0x00, 0x00, 0x00 };
